<svg xmlns="http://www.w3.org/2000/svg" xmlns:xlink="http://www.w3.org/1999/xlink" id="LOGO_xA0_Image_00000008148576905340944280000013795574835795503008_" x="0px" y="0px" viewBox="0 0 460.8 259.2" style="enable-background:new 0 0 460.8 259.2;" xml:space="preserve"><style type="text/css">	.st0{fill:#FFFFFF;}</style><path class="st0" d="M129.56,132.67c-8.26,13.41-16.64,27.03-25.02,40.64c0.09,0.06,0.18,0.11,0.27,0.17 c1.56-1.91,3.01-3.92,4.71-5.69c1.85-1.92,3.81-3.77,5.93-5.38c2.04-1.55,4.45-2.37,6.94-0.95c2.57,1.46,3.74,3.88,3.6,6.72 c-0.08,1.75-0.52,3.6-1.28,5.17c-1.38,2.82-3.12,5.47-4.73,8.19c-1.34,2.27-2.71,4.52-4.03,6.8c-0.34,0.58-0.57,1.23-0.77,1.88 c-0.32,1-0.31,2.02,0.49,2.8c0.79,0.77,1.88,0.96,2.79,0.47c1.6-0.86,3.35-1.7,4.55-2.99c3.13-3.36,6.1-6.87,8.94-10.48 c2.96-3.77,5.53-7.85,9.36-10.87c3.62-2.86,7.32-5.61,11.7-7.17c1.84-0.66,3.87-1.03,5.83-1.1c2.57-0.1,4.15,1.54,4.46,4.09 c0.34,2.86-0.19,5.63-1.42,8.16c-1.62,3.33-3.5,6.53-5.34,9.9c0.89,0.61,2.13,0.72,3.39,0.46c3.18-0.66,5.73-2.48,7.89-4.76 c1.77-1.87,3.38-3.94,4.8-6.1c2.04-3.1,3.84-6.36,5.74-9.56c0.22-0.37,0.41-0.75,0.69-1.26c-2,0-3.86,0-5.72,0 c-0.06-0.12-0.11-0.25-0.17-0.37c0.39-0.21,0.78-0.58,1.18-0.6c1.32-0.08,2.64-0.09,3.96-0.01c0.94,0.05,1.5-0.24,2-1.09 c1.87-3.21,3.83-6.37,5.73-9.56c0.37-0.62,0.68-0.8,1.48-0.73c1.88,0.17,3.79,0.05,5.81,0.05c-2.2,3.71-4.38,7.4-6.68,11.27 c2.64,0,5.09,0,7.54,0c0.05,0.15,0.1,0.3,0.15,0.44c-0.4,0.19-0.8,0.52-1.21,0.54c-2.04,0.06-4.08-0.02-6.12,0.06 c-0.45,0.02-1.06,0.35-1.28,0.73c-4.47,7.57-8.95,15.13-13.29,22.78c-0.93,1.63-1.59,3.51-1.91,5.35c-0.39,2.27,1.32,3.63,3.52,2.84 c1.54-0.55,3.11-1.42,4.25-2.56c2.66-2.64,5.17-5.45,7.54-8.36c2.22-2.72,4.06-5.76,6.28-8.48c4.35-5.33,9.84-9.25,16.13-11.94 c1.89-0.81,4.07-1.17,6.15-1.29c2.69-0.16,4.3,1.51,4.61,4.19c0.34,2.99-0.3,5.86-1.6,8.49c-1.41,2.85-3.15,5.55-4.75,8.31 c-0.19,0.33-0.43,0.65-0.68,1.02c1.61,0.96,3.2,0.89,4.79,0.32c3.41-1.22,6.34-3.28,8.32-6.23c2.79-4.15,6.35-7.38,10.48-10.04 c3.74-2.41,7.57-4.63,11.94-5.72c0.85-0.21,1.73-0.35,2.6-0.38c2.65-0.09,3.91,1.18,3.89,3.85c0,0.55-0.09,1.1-0.17,1.94 c1.06-1.89,1.99-3.55,2.86-5.09c2.47,0,4.85,0,7.26,0c-6.47,11.19-13,22.48-19.53,33.76c0.04,0.06,0.08,0.12,0.12,0.18 c0.36-0.19,0.72-0.38,1.08-0.58c8.2-4.5,14.9-10.69,20.53-18.12c3.07-4.04,6.27-7.98,9.52-11.88c1.04-1.24,2.32-2.33,3.65-3.27 c2.5-1.76,5.47-0.64,6.39,2.28c0.76,2.43,0.51,4.85-0.39,7.17c-0.72,1.86-1.66,3.62-2.5,5.43c-0.16,0.34-0.34,0.67-0.41,1.07 c2.03-2.31,4.77-3.88,6.03-6.95c1.19-2.89,3.15-5.41,5.58-7.42c1.17-0.97,2.59-1.72,4.01-2.27c0.62-0.24,1.91,0.04,2.22,0.52 c0.37,0.56,0.3,1.81-0.1,2.39c-0.9,1.29-2,2.51-3.24,3.48c-2.08,1.62-4.2,3.27-6.54,4.43c-2.55,1.26-3.28,3.26-3.44,5.77 c-0.02,0.24-0.02,0.48-0.02,0.72c0.02,4.37,2.77,6.08,6.7,4.11c2.53-1.27,4.37-3.34,6.05-5.55c5.36-7.06,12.43-11.77,20.59-14.93 c1.54-0.6,3.24-0.92,4.9-1.02c3-0.19,4.35,1.42,3.94,4.4c-0.04,0.27-0.1,0.54,0.02,0.9c0.86-1.61,1.72-3.23,2.47-4.63 c2.53,0,4.87,0,7.25,0c-0.15,0.28-0.36,0.69-0.58,1.07c-4.27,7.22-8.58,14.42-12.78,21.69c-0.93,1.61-1.59,3.4-2.18,5.17 c-0.43,1.29-0.62,2.78,0.65,3.77c1.3,1.02,2.72,0.42,3.74-0.47c2.67-2.33,5.49-4.59,7.71-7.32c3.66-4.47,7.14-9.14,10.27-14 c5.14-8,9.94-16.22,14.88-24.34c0.23-0.37,0.47-0.74,0.56-0.88c2.47,0,4.76,0,7.07,0c-5.29,8.56-10.64,17.24-16,25.92 c0.05,0.04,0.11,0.07,0.17,0.11c1.5-1.84,2.96-3.71,4.5-5.51c1.01-1.18,2.07-2.35,3.21-3.4c2.17-1.99,4.67-3.24,7.66-2.19 c3,1.05,4.48,3.52,5.1,6.48c0.85,4.08-0.09,7.85-2.26,11.35c-1.8,2.9-4.17,5.26-6.9,7.27c-4.62,3.39-9.41,6.51-15.04,7.99 c-1.07,0.28-2.21,0.39-3.32,0.38c-2.27-0.01-3.47-1.29-3.43-3.55c0.01-0.63,0.13-1.26,0.24-2.27c-0.41,0.65-0.66,1.01-0.88,1.38 c-6.98,11.61-13.96,23.22-20.9,34.85c-0.48,0.81-0.91,0.97-1.86,0.88c-1.91-0.18-3.86-0.05-5.8-0.05 c8.4-13.82,16.89-27.79,25.39-41.77c-0.05-0.05-0.11-0.09-0.16-0.14c-0.24,0.25-0.47,0.51-0.71,0.76c-2.33,2.47-4.64,4.96-7.01,7.39 c-0.58,0.59-1.32,1.04-2.04,1.46c-4.14,2.46-8.57,0.32-9.33-4.46c-0.33-2.07-0.01-4.06,0.65-6.01c0.16-0.48,0.34-0.96,0.39-1.5 c-1.37,1.79-2.66,3.64-4.13,5.34c-1.75,2.02-3.55,4.02-5.52,5.81c-1.71,1.54-3.85,2.32-6.22,1.77c-3.02-0.69-4.64-2.86-5.53-5.62 c-0.9-2.78-0.7-5.6,0.11-8.39c0.12-0.41,0.25-0.83,0.46-1.55c-0.91,0.85-1.56,1.51-2.26,2.1c-1.86,1.58-3.87,2.85-6.44,2.79 c-2.32-0.05-3.89-1.25-4.1-3.53c-0.17-1.83,0.06-3.7,0.12-5.81c-1.85,2.05-3.9,3.91-5.44,6.13c-2.75,3.97-5.22,8.14-7.73,12.26 c-0.49,0.8-0.97,1.05-1.9,1c-1.95-0.1-3.9-0.03-6.02-0.03c0.26-0.44,0.47-0.81,0.69-1.17c4.72-7.84,9.48-15.65,14.12-23.53 c0.92-1.56,1.51-3.34,2.05-5.09c0.18-0.59-0.06-1.62-0.49-2c-0.36-0.32-1.46-0.21-1.95,0.12c-1.31,0.89-2.65,1.86-3.64,3.07 c-2.6,3.18-5.11,6.45-7.51,9.79c-6.36,8.84-14.23,15.96-23.75,21.28c-0.74,0.42-1.44,1.14-1.85,1.89 c-3.59,6.56-7.24,13.08-12.07,18.85c-4.74,5.67-10.14,10.58-16.79,13.89c-2.08,1.03-4.39,1.76-6.68,2.17 c-5.34,0.95-8.49-2.59-7.2-7.84c0.85-3.47,2.93-6.18,5.41-8.61c4.15-4.07,9.03-7.14,14.15-9.79c4.51-2.32,9.1-4.48,13.69-6.64 c1.15-0.54,1.92-1.27,2.51-2.39c2.53-4.76,5.13-9.49,7.71-14.23c0.2-0.37,0.37-0.76,0.4-1.22c-1.74,2.16-3.46,4.34-5.23,6.49 c-0.84,1.02-1.73,2-2.66,2.93c-2.2,2.17-4.75,3.57-7.89,2.42c-3.16-1.16-4.59-3.81-5.2-6.96c-0.51-2.66-0.02-5.24,0.94-8.02 c-3.76,3.2-7.38,6.08-12.53,4.18c-1.25,1.55-2.39,3.22-3.79,4.62c-1.74,1.74-3.53,3.55-5.6,4.83c-8.15,5.03-13.84-1.75-14.03-7.61 c-0.05-1.54,0.2-3.09,0.32-4.7c-1.21,1.53-2.32,3.14-3.64,4.56c-2.34,2.51-4.71,5-7.24,7.31c-1.64,1.49-3.64,2.5-6.03,2.09 c-3.48-0.61-5.85-4.03-5.42-7.77c0.29-2.51,1.26-4.77,2.43-6.97c0.18-0.35,0.37-0.69,0.51-1.1c-3.8,3.3-7.52,6.75-13.19,4.75 c-1.26,1.56-2.39,3.22-3.79,4.63c-1.71,1.72-3.47,3.48-5.5,4.77c-6.65,4.21-13.91,0.19-14.12-7.71c-0.04-1.5,0.21-3.01,0.34-4.68 c-0.41,0.53-0.75,0.99-1.11,1.45c-2.83,3.68-5.73,7.3-9.36,10.25c-0.53,0.43-1.09,0.81-1.65,1.19c-4.88,3.27-9.97-0.27-10.02-5.35 c-0.02-1.93,0.51-3.98,1.26-5.77c0.93-2.23,2.32-4.27,3.58-6.35c1.78-2.94,3.65-5.82,5.44-8.75c0.39-0.64,0.71-1.35,0.97-2.05 c0.8-2.18-0.53-3.81-2.79-3.22c-1.35,0.35-2.79,0.97-3.81,1.89c-2.43,2.18-4.84,4.45-6.89,6.98c-4.92,6.07-8.75,12.89-12.66,19.63 c-0.6,1.04-1.15,2.11-1.78,3.12c-0.17,0.27-0.57,0.57-0.87,0.58c-1.94,0.05-3.89,0.03-5.99,0.03c0.27-0.52,0.49-0.96,0.73-1.4 c10.74-20.09,22.42-39.64,33.98-59.27c0.43-0.72,0.82-0.87,1.68-0.8C125.45,132.78,127.52,132.67,129.56,132.67z M234.32,200.56 c-7.46,3.69-14.69,7.14-21.31,11.69c-3.2,2.2-6.26,4.58-8.79,7.56c-1.59,1.88-2.89,3.92-3.43,6.37c-0.82,3.73,1.23,6.23,5.05,6.14 c2.62-0.07,5-0.94,7.21-2.32c2.68-1.67,4.87-3.87,6.83-6.32C225.52,216.62,229.81,208.73,234.32,200.56z M161.61,170.91 c0.76-2.12,1.09-4.02,0.73-6c-0.39-2.14-1.69-3.3-3.86-3.38c-2.11-0.08-4,0.7-5.5,2.04c-2.34,2.09-4.66,4.28-6.66,6.69 c-3.56,4.29-6.72,8.89-8.29,14.32c-0.57,1.95-0.77,4.08-0.71,6.11c0.06,1.91,1.38,3.03,3.29,2.91c1.59-0.09,3.29-0.42,4.7-1.12 c4.24-2.09,7.03-5.77,9.61-9.25c-0.56-1.27-1.22-2.28-1.44-3.37c-0.62-3.19,2.38-8.47,5.4-9.71 C159.87,169.74,160.82,169.62,161.61,170.91z M217.2,170.77c0.16-0.03,0.31-0.07,0.47-0.1c0.15-1.73,0.53-3.47,0.41-5.17 c-0.23-3.07-2.32-4.46-5.35-3.85c-1.98,0.4-3.66,1.4-5.13,2.71c-5.93,5.3-10.53,11.59-13.47,18.98c-0.77,1.93-1.11,4.09-1.25,6.18 c-0.2,2.92,1.48,4.4,4.4,4.1c1.17-0.12,2.38-0.44,3.43-0.95c4.37-2.14,7.25-5.86,9.9-9.43c-0.56-1.29-1.23-2.3-1.44-3.39 c-0.61-3.21,2.4-8.47,5.41-9.7C215.57,169.74,216.51,169.63,217.2,170.77z M342.6,190.48c0.11,2.41,1.37,3.51,3.73,3.13 c2.11-0.34,4.01-1.28,5.53-2.7c2.74-2.55,5.47-5.15,7.93-7.97c3.34-3.83,6.38-7.93,7.97-12.84c0.57-1.77,0.82-3.75,0.73-5.62 c-0.11-2.12-2.05-3.21-4.1-2.57c-0.86,0.27-1.72,0.69-2.43,1.25c-1.32,1.03-2.61,2.12-3.75,3.34c-4.86,5.22-9.07,10.94-12.74,17.06 c-0.72,1.19-1.34,2.46-1.88,3.74C343.15,188.32,342.92,189.42,342.6,190.48z M253.29,165.57c0.04-3.05-1.33-4.16-3.76-3.73 c-2.07,0.36-3.83,1.4-5.42,2.69c-5.59,4.53-10.04,10.06-13.72,16.2c-0.9,1.5-1.68,3.11-2.18,4.78c-0.48,1.61-0.81,3.38-0.71,5.04 c0.17,2.73,2.51,3.96,4.92,2.64c1.48-0.81,2.87-1.9,4.09-3.09c4.54-4.43,8.33-9.49,11.88-14.72c1.41-2.07,2.63-4.29,3.78-6.52 C252.79,167.64,253.07,166.24,253.29,165.57z M302.25,189.78c0.06,1.24,0.16,2.63,1.53,3.42c1.39,0.81,2.8,0.59,4.08-0.24 c1.03-0.67,2.1-1.37,2.94-2.25c2.15-2.25,4.38-4.47,6.22-6.96c3.24-4.4,6.31-8.93,9.25-13.54c0.96-1.5,1.55-3.36,1.83-5.13 c0.4-2.55-1.08-3.69-3.64-3.19c-2.14,0.42-3.97,1.5-5.6,2.86c-6.01,5.03-10.9,11-14.59,17.92 C303.12,184.83,302.37,187.15,302.25,189.78z"></path><path class="st0" d="M428.06,195.54c4.84-2.53,9.48-5.39,13.3-9.31c3.77-3.86,7.28-7.97,10.9-11.97c0.1,0.06,0.21,0.12,0.31,0.18 c-0.31,0.54-0.55,1.14-0.93,1.62c-4.46,5.69-9.3,11-15.27,15.16c-2.75,1.92-5.65,3.61-8.46,5.46c-0.54,0.35-1.07,0.85-1.37,1.4 c-3.68,6.65-7.46,13.23-12.3,19.14c-4.43,5.41-9.56,9.99-15.72,13.34c-2.65,1.44-5.45,2.52-8.5,2.69c-4.69,0.25-7.27-2.82-6.32-7.4 c0.58-2.78,2-5.12,3.83-7.22c3.67-4.23,8.18-7.42,13.05-10.05c5.3-2.87,10.74-5.47,16.17-8.1c1.32-0.64,2.26-1.44,2.97-2.75 c2.46-4.53,5.03-9,7.56-13.49c0.18-0.33,0.34-0.67,0.31-1.12c-0.97,1.25-1.9,2.53-2.91,3.74c-1.38,1.66-2.8,3.29-4.23,4.9 c-0.42,0.47-0.93,0.88-1.45,1.26c-2.52,1.86-5.16,2.14-7.26,0.8c-2.4-1.54-3.75-4.66-3.09-7.52c0.36-1.58,0.98-3.1,1.56-4.9 c-1.16,1.45-2.16,2.74-3.2,3.99c-2.36,2.83-4.79,5.59-7.85,7.71c-1.62,1.12-3.34,1.88-5.39,1.43c-3.55-0.78-5.75-4.46-5.04-8.48 c0.54-3.05,1.99-5.71,3.61-8.3c2.21-3.52,4.44-7.02,6.63-10.55c0.4-0.64,0.71-1.34,0.98-2.05c0.82-2.19-0.47-3.83-2.73-3.28 c-1.32,0.32-2.63,0.99-3.74,1.78c-3.14,2.26-5.66,5.17-7.96,8.26c-4.98,6.68-9.11,13.9-13.19,21.14c-0.43,0.77-0.81,1.09-1.82,0.97 c-1.68-0.21-3.41-0.06-5.18-0.06c10.89-20.86,23.13-41.05,35.08-61.38c2.49,0,4.93,0,7.37,0c-8.3,13.49-16.69,27.1-25.07,40.72 c0.1,0.07,0.21,0.14,0.31,0.21c0.71-0.92,1.36-1.89,2.15-2.74c2.21-2.41,4.44-4.81,6.75-7.13c0.72-0.72,1.65-1.27,2.55-1.77 c4.23-2.33,8.37-0.45,9.51,4.26c0.51,2.11,0.3,4.17-0.6,6.09c-1.08,2.31-2.29,4.57-3.57,6.77c-1.77,3.03-3.69,5.98-5.5,8.99 c-0.41,0.68-0.68,1.44-0.94,2.2c-0.35,1-0.34,2.01,0.43,2.81c0.81,0.83,1.9,0.95,2.89,0.5c1.22-0.56,2.56-1.13,3.46-2.06 c2.91-3.01,5.73-6.12,8.43-9.32c5.04-6,8.79-12.85,12.7-19.58c0.45-0.78,0.9-0.93,1.79-0.87c1.98,0.14,3.98,0.04,6.06,0.04 c-0.13,0.22-0.34,0.57-0.55,0.92c-4.57,7.51-9.17,15-13.67,22.55c-0.89,1.49-1.48,3.18-2.09,4.82c-0.41,1.09-0.36,2.27,0.55,3.13 c0.93,0.88,2.15,0.8,3.16,0.28c1.37-0.71,2.74-1.52,3.88-2.54c4.04-3.65,7.09-8.13,9.95-12.71c3.22-5.15,6.27-10.4,9.36-15.63 c0.42-0.71,0.81-0.92,1.68-0.86c1.98,0.14,3.97,0.04,5.84,0.04c-6.43,11.11-12.96,22.39-19.48,33.67 C427.85,195.4,427.95,195.47,428.06,195.54z M417.55,200.8c-1.98,0.99-3.96,1.97-5.94,2.97c-6.67,3.36-13.29,6.86-19.03,11.71 c-2.18,1.84-4.2,3.96-5.89,6.24c-1.12,1.5-1.81,3.47-2.21,5.34c-0.72,3.4,1.14,5.45,4.64,5.5c2.42,0.04,4.64-0.67,6.73-1.85 c2.79-1.58,5.06-3.77,7.07-6.22C408.85,217.29,413.25,209.14,417.55,200.8z"></path><path class="st0" d="M102.23,122.92c-3.15,2.32-5.86,5.02-8.36,7.93c-6.16,7.18-10.83,15.31-15.06,23.72 c-2.21,4.39-4.47,8.75-6.75,13.1c-5.26,10.05-13.26,17.18-23.42,22.03c-6.24,2.98-12.63,5.43-19.59,6.02 c-5.41,0.46-10.63-0.15-15.36-3.07c-2.88-1.77-5.14-4.09-5.8-7.57c-0.54-2.86-0.07-5.5,2.05-7.66c0.41-0.42,0.89-0.82,1.42-1.09 c1.62-0.83,3.36-1.1,4.86,0.1c1.56,1.23,1.44,3.07,1.01,4.76c-0.45,1.73-1.57,2.95-3.47,3.23c-2.21,0.32-3.45-0.72-3.54-2.94 c-0.02-0.46-0.06-0.91-0.09-1.37c-0.12-0.04-0.24-0.07-0.36-0.11c-0.19,0.42-0.5,0.83-0.57,1.28c-0.47,3.11,0.23,5.88,2.53,8.13 c2.99,2.92,6.69,4.31,10.76,4.76c11.32,1.24,20.61-2.97,28.65-10.64c4.85-4.63,8.56-10.12,12.3-15.6 c5.37-7.85,10.56-15.83,16.21-23.48c5.44-7.37,11.61-14.16,18.65-20.1c0.91-0.77,1.88-1.48,2.95-2.32 c-0.49-0.38-0.93-0.76-1.39-1.09c-4.57-3.32-9.78-5.05-15.29-5.88c-11.44-1.72-22.68-0.9-33.45,3.55 c-13.48,5.57-23.83,14.91-31.54,27.19c-2.84,4.53-4.5,9.52-4.44,14.97c0.09,7.57,5.09,13.07,12.62,13.99 c6.03,0.74,11.62-0.61,16.87-3.44c7.76-4.19,14.22-9.9,19.29-17.13c2.88-4.1,4.69-8.62,4.55-13.76c-0.14-5.15-2.9-7.96-8.06-8.16 c-3.58-0.14-6.91,0.79-9.99,2.52c-7.21,4.08-12.97,9.7-17.23,16.81c-1.68,2.81-2.69,5.88-2.69,9.21c0,2.96,1.79,4.94,4.73,5.32 c0.35,0.05,0.69,0.24,1.03,0.36c0,0.12-0.01,0.24-0.01,0.37c-0.42,0.1-0.83,0.28-1.25,0.28c-1.84,0-3.31-0.83-4.45-2.24 c-2.49-3.08-2.58-6.61-1.84-10.25c0.76-3.73,2.62-6.95,5.09-9.79c5.16-5.93,11.21-10.58,18.93-12.7c3.07-0.84,6.2-1.15,9.38-0.68 c4.7,0.7,7.29,3.56,7.51,8.33c0.18,3.97-0.77,7.69-2.53,11.22c-2.55,5.13-6.3,9.32-10.52,13.12c-5.27,4.76-11.03,8.73-17.97,10.69 c-4.26,1.2-8.58,1.53-12.92,0.53c-7.4-1.71-12.44-7.85-12.94-15.51c-0.6-9.09,2.57-16.85,8.52-23.45 c10.59-11.75,23.74-19.16,39.28-22.13c10.35-1.98,20.68-1.78,30.87,1.16c3.82,1.1,7.44,2.67,10.8,4.8c0.72,0.46,1.22,0.4,1.92-0.02 c5.37-3.23,11.07-5.51,17.37-6.09c2.97-0.27,5.92-0.15,8.79,0.7c6.62,1.95,11.07,7.6,11.55,14.66c0.25,3.71-0.24,7.34-1.41,10.87 c-0.18,0.55-0.98,1.45-1.11,1.39c-0.91-0.43-0.26-1.16-0.08-1.73c1.39-4.23,1.8-8.53,0.87-12.89c-1.54-7.22-7.41-11.95-14.96-12.13 c-6.8-0.16-12.98,1.92-18.82,5.21c-0.73,0.41-1.44,0.85-2.28,1.34c0.69,0.63,1.3,1.18,1.9,1.74c3.25,3.04,5.76,6.57,6.61,11.02 c1.06,5.56-0.24,10.53-3.93,14.87c-6.25,7.33-16.08,9.59-24.79,5.65c-0.82-0.37-1.81-0.66-2.06-2.17c0.89,0.32,1.54,0.5,2.16,0.78 c5.48,2.49,10.72,2.25,15.58-1.47c2.89-2.21,4.99-5.09,6.21-8.52c2.47-6.96,2.11-13.59-2.7-19.57 C102.8,123.54,102.53,123.26,102.23,122.92z"></path><path class="st0" d="M23.7,73.86c0.44-7.72,3.63-13.92,10.68-17.6c7.65-4,16.06-0.26,18.07,8.11c1.94,8.1-0.33,15.15-6.71,20.6 c-3.57,3.05-7.9,3.92-12.5,3.08c-4.64-0.85-8.37-5.19-9.16-10.53C23.9,76.33,23.83,75.14,23.7,73.86z M49.39,66.43 c-0.04-0.73-0.06-1.49-0.14-2.25c-0.42-3.93-2.85-6.71-6.37-7.25c-2.93-0.45-5.42,0.52-7.57,2.5c-3.71,3.41-5.87,7.71-7.17,12.5 c-0.67,2.49-0.94,5-0.5,7.59c1.01,5.83,6.23,8.58,11.49,5.88c1.49-0.77,2.91-1.87,4.05-3.11C47.28,77.84,49.09,72.43,49.39,66.43z"></path><path class="st0" d="M165.27,57.43c-4.61,0-9.09-0.03-13.57,0.01c-2.27,0.02-3.97,1.14-5.07,3.09c-0.45,0.81-0.91,0.88-1.66,0.3 c0.62-1.86,1.21-3.72,1.88-5.54c0.09-0.24,0.6-0.49,0.89-0.47c2.22,0.16,4.44,0.53,6.66,0.57c5,0.09,10,0.02,15,0.05 c0.59,0,1.18,0.23,1.76,0.35c-0.28,0.5-0.49,1.07-0.86,1.5c-7.76,9.09-15.54,18.17-23.32,27.26c-0.28,0.33-0.55,0.67-0.82,1 c0.08,0.11,0.12,0.22,0.16,0.22c4.83-0.15,9.66-0.27,14.49-0.48c2.75-0.12,4.72-1.55,6.02-3.95c0.09-0.18,0.21-0.34,0.33-0.5 c0.04-0.06,0.13-0.09,0.27-0.19c0.3,0.14,0.65,0.3,1.13,0.53c-0.78,2.19-1.53,4.32-2.34,6.43c-0.09,0.24-0.63,0.43-0.95,0.43 c-7.95-0.12-15.9-0.27-23.86-0.44c-0.45-0.01-0.9-0.18-1.34-0.27c0.2-0.44,0.32-0.96,0.62-1.32c7.81-9.11,15.64-18.19,23.47-27.28 C164.56,58.28,164.93,57.83,165.27,57.43z"></path><path class="st0" d="M124,82.75c0.29,0.31,0.55,0.58,0.91,0.96c-2.15,2.16-4.45,3.89-7.48,4.34c-1.45,0.21-1.95-0.42-1.42-1.83 c1.42-3.82,2.92-7.6,4.37-11.41c0.35-0.93,0.7-1.87,0.95-2.83c0.33-1.27-0.42-1.98-1.65-1.5c-0.84,0.33-1.65,0.82-2.37,1.37 c-3.8,2.92-6.54,6.64-8.25,11.12c-0.43,1.12-0.91,2.22-1.24,3.37c-0.3,1.02-0.85,1.44-1.9,1.28c-0.5-0.07-1.01-0.01-1.7-0.01 c0.26-0.72,0.43-1.24,0.62-1.75c1.67-4.41,3.36-8.8,4.97-13.23c0.24-0.66,0.07-1.48,0.09-2.22c-0.7,0.29-1.48,0.46-2.08,0.9 c-0.89,0.65-1.65,1.49-2.48,2.26c-0.81-0.41-1.17-0.82-0.38-1.61c1.76-1.77,3.56-3.47,6.07-4.11c2.2-0.56,3.12,0.36,2.44,2.54 c-0.59,1.9-1.33,3.74-1.89,5.7c0.32-0.41,0.63-0.82,0.95-1.23c1.84-2.33,3.83-4.55,6.46-6c1.05-0.58,2.29-1,3.48-1.12 c1.74-0.18,2.65,0.87,2.36,2.59c-0.21,1.29-0.58,2.57-1.05,3.8c-1.12,2.95-2.37,5.85-3.49,8.79c-0.26,0.69-0.22,1.5-0.31,2.26 c0.74-0.3,1.52-0.53,2.2-0.93C122.8,83.86,123.34,83.3,124,82.75z"></path><path class="st0" d="M190.8,82.16c0.02,0.42,0.24,1.01,0.04,1.24c-1.67,1.97-3.58,3.67-6.1,4.46c-0.55,0.17-1.35,0.18-1.77-0.11 c-0.27-0.19-0.2-1.11-0.05-1.63c0.6-2.01,1.29-4,1.79-6.08c-0.25,0.33-0.47,0.69-0.77,0.99c-1.83,1.83-3.61,3.71-5.54,5.43 c-0.77,0.69-1.85,1.11-2.86,1.44c-1.95,0.63-3.59-0.54-3.6-2.59c0-1.26,0.16-2.57,0.52-3.77c1.45-4.7,4.09-8.65,7.97-11.68 c0.96-0.75,2.08-1.36,3.22-1.8c2.08-0.81,3.66-0.42,5.42,1.14c0.64-1.35,1.67-1.9,3.2-1.34c-0.91,2.38-1.87,4.73-2.72,7.13 c-1.06,2.97-2.04,5.96-3.01,8.96c-0.11,0.35,0.04,0.79,0.07,1.19c0.35-0.13,0.77-0.18,1.04-0.41c0.94-0.8,1.83-1.66,2.74-2.49 C190.53,82.19,190.67,82.18,190.8,82.16z M175.26,83.71c0.23,0.46,0.39,1.37,0.87,1.59c0.5,0.23,1.33-0.13,1.97-0.35 c0.4-0.14,0.77-0.45,1.05-0.77c2.22-2.56,4.46-5.09,6.58-7.73c0.6-0.75,0.91-1.78,1.19-2.72c0.57-1.87,0.22-3.61-0.85-4.16 c-1.57-0.81-2.92-0.06-4.03,0.95C178.23,73.98,176.3,78.46,175.26,83.71z"></path><path class="st0" d="M84.67,81.52c0.28-4.09,1.7-7.66,4.41-10.67c1.36-1.52,3-2.6,5.04-3.03c3.5-0.73,6.41,1.31,6.45,4.86 c0.05,5.32-1.91,9.89-5.91,13.48c-0.58,0.52-1.31,0.92-2.03,1.25c-3.99,1.8-7.48-0.25-7.89-4.61C84.7,82.35,84.69,81.91,84.67,81.52 z M86.73,82.43c-0.07,2.72,1.39,3.91,3.34,3.1c1.21-0.5,2.38-1.34,3.3-2.28c2.43-2.51,4-5.56,5.01-8.89 c0.2-0.68,0.31-1.42,0.29-2.12c-0.06-1.66-1.34-2.62-2.95-2.26c-0.61,0.14-1.27,0.34-1.76,0.7C89.76,73.75,87.61,78.04,86.73,82.43z "></path><path class="st0" d="M196.35,73.73c-0.41-0.41-1.07-0.69-0.39-1.34c2.01-1.9,4.09-3.72,6.82-4.52c1.92-0.56,2.63,0.03,2.01,1.88 c-1.65,4.91-3.37,9.8-5.19,14.65c-1.02,2.72-2.11,5.44-3.51,7.97c-0.96,1.74-2.38,3.3-3.84,4.68c-1.71,1.61-3.89,1.97-6.16,1.26 c-1.1-0.34-2.05-0.96-2.2-2.27c-0.12-1.08,0.55-2.04,1.53-2.28c1.04-0.25,1.92,0.24,2.37,1.33c0.94,2.27,2.24,2.53,3.74,0.48 c1.18-1.62,2.19-3.45,2.9-5.33c2.12-5.68,4.05-11.43,6.05-17.15c0.05-0.15,0.13-0.31,0.13-0.46c-0.01-0.5-0.06-0.99-0.1-1.49 c-0.47,0.13-1.01,0.15-1.4,0.41C198.19,72.21,197.34,72.95,196.35,73.73z"></path><path class="st0" d="M64.54,82.19c0.28,0.32,0.54,0.61,0.88,1c-2.43,2.31-4.95,4.29-8.29,4.85c-1.92,0.32-2.59-0.43-2.04-2.29 c0.37-1.26,0.94-2.46,1.46-3.67c1.45-3.37,2.91-6.74,4.37-10.1c0.15-0.35,0.28-0.72,0.49-1.27c-1.24,0-2.34,0-3.43,0 c0.04-1.63,0.23-1.96,1.6-1.78c2.03,0.28,3.22-0.42,3.7-2.41c0.13-0.53,0.53-1,0.65-1.54c0.55-2.44,2.61-2.8,4.8-3.26 c-1.12,2.33-2.23,4.66-3.42,7.13c1.72,0,3.33,0,4.93,0c0,1.53-0.27,1.83-1.56,1.84c-1.08,0.01-2.16-0.06-3.23,0.04 c-0.41,0.04-1,0.35-1.15,0.7c-1.73,3.9-3.42,7.82-5.05,11.77c-0.25,0.6-0.14,1.35-0.2,2.02c0.7-0.16,1.48-0.17,2.07-0.52 C62.27,83.98,63.31,83.1,64.54,82.19z"></path><path class="st0" d="M79.42,82.2c0.28,0.31,0.52,0.57,0.89,0.97c-2.63,2.46-5.29,4.68-9.05,4.89c-1.19,0.07-1.59-0.44-1.39-1.65 c0.13-0.78,0.38-1.55,0.69-2.28c1.72-4.04,3.47-8.06,5.2-12.09c0.16-0.36,0.3-0.73,0.54-1.32c-1.25,0-2.37,0-3.52,0 c0.01-1.35,0.44-2.08,1.71-1.83c2.05,0.41,3.21-0.44,3.67-2.42c0.08-0.34,0.34-0.64,0.42-0.99c0.57-2.49,2.44-3.43,5.06-4 c-1.01,2.62-2.38,4.87-3.46,7.39c1.74,0,3.36,0,4.98,0c-0.12,1.61-0.32,1.79-1.77,1.82c-1.31,0.02-2.92-0.36-3.84,0.25 c-0.93,0.62-1.19,2.26-1.71,3.46c-1.26,2.93-2.55,5.85-3.74,8.81c-0.24,0.6-0.11,1.34-0.15,2.01c0.66-0.16,1.41-0.17,1.97-0.51 C77.11,83.99,78.19,83.1,79.42,82.2z"></path><path class="st0" d="M218.62,82.21c0.36,0.3,0.62,0.52,0.99,0.83c-2.16,2.78-4.52,5.06-8.29,5.03c-2.53-0.02-3.97-1.35-4.09-3.89 c-0.05-1.18,0.05-2.41,0.34-3.56c1.04-4.11,3.28-7.52,6.4-10.34c1.41-1.28,3.05-2.2,4.95-2.54c2.47-0.44,3.99,1.14,3.41,3.58 c-0.58,2.48-2.21,4.19-4.45,5.17c-1.81,0.79-3.76,1.3-5.7,1.74c-0.93,0.21-1.43,0.52-1.48,1.48c-0.06,1.19-0.27,2.39-0.2,3.58 c0.1,1.75,1.41,2.7,3.14,2.45C215.82,85.41,217.28,84.02,218.62,82.21z M211.39,77.13c3.02-0.5,5.62-1.34,7.44-3.72 c0.83-1.09,0.79-2.53,0.07-3.22c-0.63-0.61-1.83-0.53-2.98,0.32C213.71,72.13,212.41,74.38,211.39,77.13z"></path><path class="st0" d="M223.91,83.47c0.54-5.39,2.45-10.06,6.38-13.76c1.34-1.26,2.92-2.12,4.84-2.02c1.82,0.1,3.09,2.03,2.23,3.47 c-0.32,0.54-1.06,1.03-1.67,1.12c-0.39,0.06-1.04-0.57-1.32-1.05c-0.71-1.2-1.63-1.54-2.75-0.67c-0.67,0.53-1.3,1.22-1.71,1.96 c-1.69,3.1-2.53,6.45-2.54,9.98c0,1.14,0.02,2.49,1.24,3.05c1.22,0.55,2.32-0.19,3.29-0.92c0.48-0.36,0.85-0.85,1.34-1.19 c0.25-0.17,0.63-0.15,0.96-0.21c0.03,0.34,0.21,0.8,0.06,0.99c-1.6,1.91-3.53,3.38-6.05,3.81c-1.85,0.32-3.44-0.71-3.97-2.5 C224.06,84.85,224.02,84.12,223.91,83.47z"></path><path class="st0" d="M205.33,56.37c1.43-0.01,2.43,0.97,2.43,2.36c0,1.35-1.13,2.45-2.54,2.47c-1.44,0.02-2.59-0.98-2.59-2.23 C202.64,57.52,203.83,56.38,205.33,56.37z"></path></svg>